<?xml version="1.0" standalone="no"?>
<!DOCTYPE svg PUBLIC "-//W3C//DTD SVG 20010904//EN"
 "http://www.w3.org/TR/2001/REC-SVG-20010904/DTD/svg10.dtd">
<svg version="1.0" xmlns="http://www.w3.org/2000/svg"
 width="63.000000pt" height="63.000000pt" viewBox="0 0 63.000000 63.000000"
 preserveAspectRatio="xMidYMid meet">

<g transform="translate(0.000000,63.000000) scale(0.100000,-0.100000)"
fill="#000000" stroke="none">
<path d="M214 569 c-210 -80 -233 -371 -38 -485 24 -14 49 -24 56 -21 7 2 -3
11 -23 19 -47 21 -107 81 -130 132 -23 50 -25 152 -5 201 24 57 63 100 118
131 45 25 64 29 123 28 68 0 142 -26 160 -54 3 -5 11 -10 17 -10 25 0 -29 41
-79 60 -67 25 -133 25 -199 -1z"/>
<path d="M328 473 c7 -3 16 -2 19 1 4 3 -2 6 -13 5 -11 0 -14 -3 -6 -6z"/>
<path d="M250 350 l0 -109 -32 -9 c-39 -10 -57 -35 -42 -60 16 -25 40 -26 63
-3 18 18 21 35 23 124 0 56 1 117 2 134 1 18 -2 33 -6 33 -5 0 -8 -49 -8 -110z"/>
</g>
</svg>
